<?xml version="1.0" encoding="UTF-8"?>
<svg width="24" height="24" viewBox="0 0 24 24" fill="none" xmlns="http://www.w3.org/2000/svg">
    <path d="M12 15C13.6569 15 15 13.6569 15 12C15 10.3431 13.6569 9 12 9C10.3431 9 9 10.3431 9 12C9 13.6569 10.3431 15 12 15Z" stroke="white" stroke-width="2" stroke-linecap="round" stroke-linejoin="round"/>
    <path d="M19.4 15C19.2669 15.3016 19.2272 15.6362 19.286 15.9606C19.3448 16.285 19.4995 16.5843 19.73 16.82L19.79 16.88C19.976 17.0657 20.1235 17.2863 20.2241 17.5291C20.3247 17.7719 20.3766 18.0322 20.3766 18.295C20.3766 18.5578 20.3247 18.8181 20.2241 19.0609C20.1235 19.3037 19.976 19.5243 19.79 19.71C19.6043 19.896 19.3837 20.0435 19.1409 20.1441C18.8981 20.2447 18.6378 20.2966 18.375 20.2966C18.1122 20.2966 17.8519 20.2447 17.6091 20.1441C17.3663 20.0435 17.1457 19.896 16.96 19.71L16.9 19.65C16.6643 19.4195 16.365 19.2648 16.0406 19.206C15.7162 19.1472 15.3816 19.1869 15.08 19.32C14.7842 19.4468 14.532 19.6572 14.3543 19.9255C14.1766 20.1938 14.0813 20.5082 14.08 20.83V21C14.08 21.5304 13.8693 22.0391 13.4942 22.4142C13.1191 22.7893 12.6104 23 12.08 23C11.5496 23 11.0409 22.7893 10.6658 22.4142C10.2907 22.0391 10.08 21.5304 10.08 21V20.91C10.0723 20.579 9.96545 20.2573 9.7743 19.988C9.58315 19.7187 9.31691 19.5145 9.01 19.4C8.70838 19.2669 8.37381 19.2272 8.04941 19.286C7.725 19.3448 7.42568 19.4995 7.19 19.73L7.13 19.79C6.94425 19.976 6.72369 20.1235 6.48088 20.2241C6.23808 20.3247 5.97783 20.3766 5.715 20.3766C5.45217 20.3766 5.19192 20.3247 4.94912 20.2241C4.70631 20.1235 4.48575 19.976 4.3 19.79C4.11405 19.6043 3.96653 19.3837 3.86588 19.1409C3.76524 18.8981 3.71338 18.6378 3.71338 18.375C3.71338 18.1122 3.76524 17.8519 3.86588 17.6091C3.96653 17.3663 4.11405 17.1457 4.3 16.96L4.36 16.9C4.59054 16.6643 4.74521 16.365 4.804 16.0406C4.86279 15.7162 4.82312 15.3816 4.69 15.08C4.56324 14.7842 4.35276 14.532 4.08447 14.3543C3.81618 14.1766 3.5018 14.0813 3.18 14.08H3C2.46957 14.08 1.96086 13.8693 1.58579 13.4942C1.21071 13.1191 1 12.6104 1 12.08C1 11.5496 1.21071 11.0409 1.58579 10.6658C1.96086 10.2907 2.46957 10.08 3 10.08H3.09C3.42099 10.0723 3.74272 9.96545 4.012 9.7743C4.28128 9.58315 4.48554 9.31691 4.6 9.01C4.73312 8.70838 4.77279 8.37381 4.714 8.04941C4.65521 7.725 4.50054 7.42568 4.27 7.19L4.21 7.13C4.02405 6.94425 3.87653 6.72369 3.77588 6.48088C3.67524 6.23808 3.62338 5.97783 3.62338 5.715C3.62338 5.45217 3.67524 5.19192 3.77588 4.94912C3.87653 4.70631 4.02405 4.48575 4.21 4.3C4.39575 4.11405 4.61631 3.96653 4.85912 3.86588C5.10192 3.76524 5.36217 3.71338 5.625 3.71338C5.88783 3.71338 6.14808 3.76524 6.39088 3.86588C6.63369 3.96653 6.85425 4.11405 7.04 4.3L7.1 4.36C7.33568 4.59054 7.635 4.74521 7.95941 4.804C8.28381 4.86279 8.61838 4.82312 8.92 4.69H9C9.29577 4.56324 9.54802 4.35276 9.7257 4.08447C9.90338 3.81618 9.99868 3.5018 10 3.18V3C10 2.46957 10.2107 1.96086 10.5858 1.58579C10.9609 1.21071 11.4696 1 12 1C12.5304 1 13.0391 1.21071 13.4142 1.58579C13.7893 1.96086 14 2.46957 14 3V3.09C14.0013 3.4118 14.0966 3.72618 14.2743 3.99447C14.452 4.26276 14.7042 4.47324 15 4.6C15.3016 4.73312 15.6362 4.77279 15.9606 4.714C16.285 4.65521 16.5843 4.50054 16.82 4.27L16.88 4.21C17.0657 4.02405 17.2863 3.87653 17.5291 3.77588C17.7719 3.67524 18.0322 3.62338 18.295 3.62338C18.5578 3.62338 18.8181 3.67524 19.0609 3.77588C19.3037 3.87653 19.5243 4.02405 19.71 4.21C19.896 4.39575 20.0435 4.61631 20.1441 4.85912C20.2447 5.10192 20.2966 5.36217 20.2966 5.625C20.2966 5.88783 20.2447 6.14808 20.1441 6.39088C20.0435 6.63369 19.896 6.85425 19.71 7.04L19.65 7.1C19.4195 7.33568 19.2648 7.635 19.206 7.95941C19.1472 8.28381 19.1869 8.61838 19.32 8.92V9C19.4468 9.29577 19.6572 9.54802 19.9255 9.7257C20.1938 9.90338 20.5082 9.99868 20.83 10H21C21.5304 10 22.0391 10.2107 22.4142 10.5858C22.7893 10.9609 23 11.4696 23 12C23 12.5304 22.7893 13.0391 22.4142 13.4142C22.0391 13.7893 21.5304 14 21 14H20.91C20.5882 14.0013 20.2738 14.0966 20.0055 14.2743C19.7372 14.452 19.5268 14.7042 19.4 15Z" stroke="white" stroke-width="2" stroke-linecap="round" stroke-linejoin="round"/>
</svg> 